<mxfile host="app.diagrams.net" modified="2020-07-05T16:39:48.063Z" agent="5.0 (Macintosh; Intel Mac OS X 10_15_3) AppleWebKit/537.36 (KHTML, like Gecko) Chrome/83.0.4103.116 Safari/537.36" etag="yXnKPLnVolVpxdyzCmH0" version="13.1.12" type="github">
  <diagram id="Zyiit8WRXVwheUQ-SJ99" name="Page-1">
    <mxGraphModel dx="1455" dy="783" grid="0" gridSize="10" guides="1" tooltips="1" connect="1" arrows="1" fold="1" page="1" pageScale="1" pageWidth="827" pageHeight="1169" math="0" shadow="0">
      <root>
        <mxCell id="0" />
        <mxCell id="1" parent="0" />
        <mxCell id="uxCuHHejZAC-gQjQRYmj-120" value="" style="rounded=0;whiteSpace=wrap;html=1;fillColor=#F0FBFF;fontSize=12;dashed=1;strokeColor=none;" parent="1" vertex="1">
          <mxGeometry x="25" y="74" width="777" height="260" as="geometry" />
        </mxCell>
        <mxCell id="uxCuHHejZAC-gQjQRYmj-5" style="edgeStyle=orthogonalEdgeStyle;rounded=0;orthogonalLoop=1;jettySize=auto;html=1;exitX=0.5;exitY=1;exitDx=0;exitDy=0;" parent="1" source="uxCuHHejZAC-gQjQRYmj-1" edge="1">
          <mxGeometry relative="1" as="geometry">
            <mxPoint x="590" y="711" as="targetPoint" />
            <Array as="points">
              <mxPoint x="438" y="287" />
              <mxPoint x="99" y="287" />
              <mxPoint x="99" y="476" />
              <mxPoint x="641" y="476" />
              <mxPoint x="641" y="711" />
            </Array>
          </mxGeometry>
        </mxCell>
        <mxCell id="uxCuHHejZAC-gQjQRYmj-1" value="点击编辑wp文件" style="rounded=1;whiteSpace=wrap;html=1;fillColor=#dae8fc;strokeColor=#6c8ebf;" parent="1" vertex="1">
          <mxGeometry x="388" y="145" width="100" height="29.37" as="geometry" />
        </mxCell>
        <mxCell id="XxC4l4LAaYLKOjhg_-a7-9" style="edgeStyle=orthogonalEdgeStyle;rounded=0;orthogonalLoop=1;jettySize=auto;html=1;entryX=0.5;entryY=0;entryDx=0;entryDy=0;fontSize=20;exitX=0.5;exitY=1;exitDx=0;exitDy=0;" edge="1" parent="1" source="XxC4l4LAaYLKOjhg_-a7-12" target="uxCuHHejZAC-gQjQRYmj-22">
          <mxGeometry relative="1" as="geometry" />
        </mxCell>
        <mxCell id="uxCuHHejZAC-gQjQRYmj-20" value="确定" style="text;html=1;align=center;verticalAlign=middle;resizable=0;points=[];autosize=1;" parent="1" vertex="1">
          <mxGeometry x="533" y="275.37" width="40" height="20" as="geometry" />
        </mxCell>
        <mxCell id="uxCuHHejZAC-gQjQRYmj-26" value="" style="edgeStyle=orthogonalEdgeStyle;rounded=0;orthogonalLoop=1;jettySize=auto;html=1;entryX=0;entryY=0.5;entryDx=0;entryDy=0;" parent="1" source="uxCuHHejZAC-gQjQRYmj-22" target="uxCuHHejZAC-gQjQRYmj-25" edge="1">
          <mxGeometry relative="1" as="geometry">
            <Array as="points" />
          </mxGeometry>
        </mxCell>
        <mxCell id="uxCuHHejZAC-gQjQRYmj-22" value="&lt;span&gt;打开空白编辑页，&lt;br&gt;&lt;/span&gt;页面展示：正在创建中..." style="rounded=0;whiteSpace=wrap;html=1;" parent="1" vertex="1">
          <mxGeometry x="127" y="365.5" width="150" height="70" as="geometry" />
        </mxCell>
        <mxCell id="XxC4l4LAaYLKOjhg_-a7-23" style="edgeStyle=orthogonalEdgeStyle;rounded=0;orthogonalLoop=1;jettySize=auto;html=1;entryX=0.5;entryY=0;entryDx=0;entryDy=0;fontSize=12;exitX=1;exitY=0.75;exitDx=0;exitDy=0;" edge="1" parent="1" source="uxCuHHejZAC-gQjQRYmj-51" target="uxCuHHejZAC-gQjQRYmj-87">
          <mxGeometry relative="1" as="geometry" />
        </mxCell>
        <mxCell id="uxCuHHejZAC-gQjQRYmj-51" value="页面展示：正在创建..." style="rounded=0;whiteSpace=wrap;html=1;" parent="1" vertex="1">
          <mxGeometry x="127" y="663" width="150" height="70" as="geometry" />
        </mxCell>
        <mxCell id="uxCuHHejZAC-gQjQRYmj-36" value="" style="edgeStyle=orthogonalEdgeStyle;rounded=0;orthogonalLoop=1;jettySize=auto;html=1;entryX=1;entryY=0.75;entryDx=0;entryDy=0;exitX=0.5;exitY=1;exitDx=0;exitDy=0;" parent="1" source="uxCuHHejZAC-gQjQRYmj-25" target="uxCuHHejZAC-gQjQRYmj-78" edge="1">
          <mxGeometry relative="1" as="geometry">
            <mxPoint x="562" y="445.5" as="sourcePoint" />
            <mxPoint x="527" y="1065.5" as="targetPoint" />
            <Array as="points">
              <mxPoint x="692" y="1025" />
            </Array>
          </mxGeometry>
        </mxCell>
        <mxCell id="XxC4l4LAaYLKOjhg_-a7-25" style="edgeStyle=orthogonalEdgeStyle;rounded=0;orthogonalLoop=1;jettySize=auto;html=1;fontSize=12;" edge="1" parent="1" source="uxCuHHejZAC-gQjQRYmj-25">
          <mxGeometry relative="1" as="geometry">
            <mxPoint x="126" y="885" as="targetPoint" />
            <Array as="points">
              <mxPoint x="761" y="400" />
              <mxPoint x="761" y="1076" />
              <mxPoint x="86" y="1076" />
              <mxPoint x="86" y="885" />
            </Array>
          </mxGeometry>
        </mxCell>
        <mxCell id="uxCuHHejZAC-gQjQRYmj-25" value="create 接口返回结果" style="rhombus;whiteSpace=wrap;html=1;" parent="1" vertex="1">
          <mxGeometry x="647" y="355.5" width="90" height="90" as="geometry" />
        </mxCell>
        <mxCell id="uxCuHHejZAC-gQjQRYmj-27" style="edgeStyle=orthogonalEdgeStyle;rounded=0;orthogonalLoop=1;jettySize=auto;html=1;exitX=0.5;exitY=1;exitDx=0;exitDy=0;" parent="1" source="uxCuHHejZAC-gQjQRYmj-25" target="uxCuHHejZAC-gQjQRYmj-25" edge="1">
          <mxGeometry relative="1" as="geometry" />
        </mxCell>
        <mxCell id="uxCuHHejZAC-gQjQRYmj-31" value="success" style="text;html=1;align=center;verticalAlign=middle;resizable=0;points=[];autosize=1;fillColor=#ffffff;" parent="1" vertex="1">
          <mxGeometry x="671" y="647" width="60" height="20" as="geometry" />
        </mxCell>
        <mxCell id="uxCuHHejZAC-gQjQRYmj-72" value="" style="edgeStyle=orthogonalEdgeStyle;rounded=0;orthogonalLoop=1;jettySize=auto;html=1;fontSize=12;exitX=0;exitY=0.5;exitDx=0;exitDy=0;" parent="1" source="uxCuHHejZAC-gQjQRYmj-118" target="uxCuHHejZAC-gQjQRYmj-55" edge="1">
          <mxGeometry relative="1" as="geometry">
            <mxPoint x="85" y="452.5" as="sourcePoint" />
            <Array as="points">
              <mxPoint x="57" y="160" />
              <mxPoint x="57" y="541" />
            </Array>
          </mxGeometry>
        </mxCell>
        <mxCell id="XxC4l4LAaYLKOjhg_-a7-21" style="edgeStyle=orthogonalEdgeStyle;rounded=0;orthogonalLoop=1;jettySize=auto;html=1;entryX=0;entryY=0.5;entryDx=0;entryDy=0;fontSize=12;" edge="1" parent="1" source="uxCuHHejZAC-gQjQRYmj-44" target="uxCuHHejZAC-gQjQRYmj-73">
          <mxGeometry relative="1" as="geometry" />
        </mxCell>
        <mxCell id="uxCuHHejZAC-gQjQRYmj-44" value="根据接口返回结果判断当前目录是否存在同名wp文件" style="rhombus;whiteSpace=wrap;html=1;" parent="1" vertex="1">
          <mxGeometry x="392" y="520.5" width="80" height="80" as="geometry" />
        </mxCell>
        <mxCell id="uxCuHHejZAC-gQjQRYmj-49" value="请求 create 接口&#xa;入参 {path, action: create}&#xa;" style="text;strokeColor=none;fillColor=none;spacing=0;spacingTop=0;overflow=hidden;rounded=0;dashed=1;fontSize=12;verticalAlign=top;horizontal=1;whiteSpace=wrap;" parent="1" vertex="1">
          <mxGeometry x="383" y="367" width="161" height="50" as="geometry" />
        </mxCell>
        <mxCell id="uxCuHHejZAC-gQjQRYmj-71" style="edgeStyle=orthogonalEdgeStyle;rounded=0;orthogonalLoop=1;jettySize=auto;html=1;entryX=0;entryY=0.5;entryDx=0;entryDy=0;fontSize=12;" parent="1" source="uxCuHHejZAC-gQjQRYmj-55" target="uxCuHHejZAC-gQjQRYmj-44" edge="1">
          <mxGeometry relative="1" as="geometry" />
        </mxCell>
        <mxCell id="uxCuHHejZAC-gQjQRYmj-55" value="&lt;span&gt;打开空白编辑页，&lt;br&gt;&lt;/span&gt;页面展示：正在打开 请稍后..." style="rounded=0;whiteSpace=wrap;html=1;" parent="1" vertex="1">
          <mxGeometry x="127" y="525.5" width="150" height="70" as="geometry" />
        </mxCell>
        <mxCell id="uxCuHHejZAC-gQjQRYmj-56" value="请求 check 接口, &#xa;入参 {fsid, path}&#xa;" style="text;strokeColor=none;fillColor=none;spacing=0;spacingTop=0;overflow=hidden;rounded=0;dashed=1;fontSize=12;verticalAlign=top;horizontal=1;whiteSpace=wrap;" parent="1" vertex="1">
          <mxGeometry x="294" y="524" width="93" height="50" as="geometry" />
        </mxCell>
        <mxCell id="uxCuHHejZAC-gQjQRYmj-80" value="" style="edgeStyle=orthogonalEdgeStyle;rounded=0;orthogonalLoop=1;jettySize=auto;html=1;fontSize=12;exitX=1;exitY=1;exitDx=0;exitDy=0;" parent="1" source="uxCuHHejZAC-gQjQRYmj-73" target="uxCuHHejZAC-gQjQRYmj-78" edge="1">
          <mxGeometry relative="1" as="geometry">
            <mxPoint x="323" y="993" as="targetPoint" />
            <Array as="points">
              <mxPoint x="587" y="993" />
            </Array>
          </mxGeometry>
        </mxCell>
        <mxCell id="uxCuHHejZAC-gQjQRYmj-83" style="edgeStyle=orthogonalEdgeStyle;rounded=0;orthogonalLoop=1;jettySize=auto;html=1;fontSize=12;entryX=1;entryY=0.25;entryDx=0;entryDy=0;exitX=0.5;exitY=1;exitDx=0;exitDy=0;" parent="1" source="uxCuHHejZAC-gQjQRYmj-44" target="uxCuHHejZAC-gQjQRYmj-51" edge="1">
          <mxGeometry relative="1" as="geometry">
            <mxPoint x="319" y="680" as="targetPoint" />
            <Array as="points">
              <mxPoint x="432" y="681" />
            </Array>
          </mxGeometry>
        </mxCell>
        <mxCell id="XxC4l4LAaYLKOjhg_-a7-33" style="edgeStyle=orthogonalEdgeStyle;rounded=0;orthogonalLoop=1;jettySize=auto;html=1;fontSize=12;exitX=0;exitY=1;exitDx=0;exitDy=0;" edge="1" parent="1" source="uxCuHHejZAC-gQjQRYmj-73">
          <mxGeometry relative="1" as="geometry">
            <mxPoint x="440" y="679" as="targetPoint" />
            <Array as="points">
              <mxPoint x="548" y="679" />
            </Array>
          </mxGeometry>
        </mxCell>
        <mxCell id="uxCuHHejZAC-gQjQRYmj-73" value="&lt;span&gt;弹出：已存在同名 wp 文件是否直接编辑&lt;/span&gt;" style="rhombus;whiteSpace=wrap;html=1;fillColor=#ffe6cc;fontSize=12;strokeColor=#d79b00;" parent="1" vertex="1">
          <mxGeometry x="527" y="520.5" width="80" height="80" as="geometry" />
        </mxCell>
        <mxCell id="uxCuHHejZAC-gQjQRYmj-77" value="存在" style="text;html=1;align=left;verticalAlign=middle;resizable=0;points=[];autosize=1;fontSize=12;" parent="1" vertex="1">
          <mxGeometry x="486.5" y="533" width="40" height="20" as="geometry" />
        </mxCell>
        <mxCell id="uxCuHHejZAC-gQjQRYmj-78" value="文档页面展示" style="rounded=0;whiteSpace=wrap;html=1;fillColor=#ffffff;fontSize=12;" parent="1" vertex="1">
          <mxGeometry x="127" y="973" width="150" height="70" as="geometry" />
        </mxCell>
        <mxCell id="uxCuHHejZAC-gQjQRYmj-79" value="是" style="text;strokeColor=none;fillColor=none;spacing=0;spacingTop=0;overflow=hidden;rounded=0;dashed=1;fontSize=12;verticalAlign=top;horizontal=1;whiteSpace=wrap;" parent="1" vertex="1">
          <mxGeometry x="591" y="623" width="23" height="24" as="geometry" />
        </mxCell>
        <mxCell id="uxCuHHejZAC-gQjQRYmj-85" value="请求 create 接口 &#xa;入参：{fsid, action: create}" style="text;strokeColor=none;fillColor=none;spacing=0;spacingTop=0;overflow=hidden;rounded=0;dashed=1;fontSize=12;verticalAlign=top;horizontal=1;whiteSpace=wrap;" parent="1" vertex="1">
          <mxGeometry x="304" y="629" width="100" height="55" as="geometry" />
        </mxCell>
        <mxCell id="uxCuHHejZAC-gQjQRYmj-109" style="edgeStyle=orthogonalEdgeStyle;rounded=0;orthogonalLoop=1;jettySize=auto;html=1;entryX=1;entryY=0.5;entryDx=0;entryDy=0;fontSize=12;exitX=0.5;exitY=1;exitDx=0;exitDy=0;" parent="1" source="uxCuHHejZAC-gQjQRYmj-87" target="uxCuHHejZAC-gQjQRYmj-93" edge="1">
          <mxGeometry relative="1" as="geometry">
            <mxPoint x="393" y="823" as="sourcePoint" />
            <Array as="points">
              <mxPoint x="432" y="856" />
            </Array>
          </mxGeometry>
        </mxCell>
        <mxCell id="XxC4l4LAaYLKOjhg_-a7-22" style="edgeStyle=orthogonalEdgeStyle;rounded=0;orthogonalLoop=1;jettySize=auto;html=1;fontSize=12;" edge="1" parent="1" source="uxCuHHejZAC-gQjQRYmj-87">
          <mxGeometry relative="1" as="geometry">
            <mxPoint x="581.6666666666667" y="780" as="targetPoint" />
          </mxGeometry>
        </mxCell>
        <mxCell id="uxCuHHejZAC-gQjQRYmj-87" value="创建成功" style="rhombus;whiteSpace=wrap;html=1;fillColor=#ffffff;fontSize=12;" parent="1" vertex="1">
          <mxGeometry x="392" y="745" width="80" height="70" as="geometry" />
        </mxCell>
        <mxCell id="uxCuHHejZAC-gQjQRYmj-110" style="edgeStyle=orthogonalEdgeStyle;rounded=0;orthogonalLoop=1;jettySize=auto;html=1;fontSize=12;exitX=0;exitY=0.25;exitDx=0;exitDy=0;dashed=1;" parent="1" source="uxCuHHejZAC-gQjQRYmj-93" edge="1">
          <mxGeometry relative="1" as="geometry">
            <mxPoint x="126.99999999999977" y="878" as="sourcePoint" />
            <mxPoint x="416" y="676" as="targetPoint" />
            <Array as="points">
              <mxPoint x="48" y="838" />
              <mxPoint x="48" y="627" />
              <mxPoint x="416" y="627" />
            </Array>
          </mxGeometry>
        </mxCell>
        <mxCell id="XxC4l4LAaYLKOjhg_-a7-27" style="edgeStyle=orthogonalEdgeStyle;rounded=0;orthogonalLoop=1;jettySize=auto;html=1;fontSize=12;dashed=1;" edge="1" parent="1" source="uxCuHHejZAC-gQjQRYmj-93">
          <mxGeometry relative="1" as="geometry">
            <mxPoint x="320" y="394" as="targetPoint" />
            <Array as="points">
              <mxPoint x="52" y="856" />
              <mxPoint x="52" y="1128" />
              <mxPoint x="793" y="1128" />
              <mxPoint x="793" y="348" />
              <mxPoint x="320" y="348" />
            </Array>
          </mxGeometry>
        </mxCell>
        <mxCell id="uxCuHHejZAC-gQjQRYmj-93" value="创建失败错误页面展示" style="rounded=0;whiteSpace=wrap;html=1;fillColor=#ffffff;fontSize=12;" parent="1" vertex="1">
          <mxGeometry x="127" y="821" width="150" height="70" as="geometry" />
        </mxCell>
        <mxCell id="uxCuHHejZAC-gQjQRYmj-95" value="失败" style="text;html=1;align=center;verticalAlign=middle;resizable=0;points=[];autosize=1;fontSize=12;" parent="1" vertex="1">
          <mxGeometry x="347" y="833" width="34" height="18" as="geometry" />
        </mxCell>
        <mxCell id="uxCuHHejZAC-gQjQRYmj-98" value="create 重试" style="text;html=1;align=center;verticalAlign=middle;resizable=0;points=[];autosize=1;fontSize=12;" parent="1" vertex="1">
          <mxGeometry x="17" y="772" width="80" height="20" as="geometry" />
        </mxCell>
        <mxCell id="uxCuHHejZAC-gQjQRYmj-114" value="" style="edgeStyle=orthogonalEdgeStyle;rounded=0;orthogonalLoop=1;jettySize=auto;html=1;fontSize=12;" parent="1" source="uxCuHHejZAC-gQjQRYmj-103" target="uxCuHHejZAC-gQjQRYmj-113" edge="1">
          <mxGeometry relative="1" as="geometry" />
        </mxCell>
        <mxCell id="uxCuHHejZAC-gQjQRYmj-103" value="本地导入doc/docx" style="rounded=1;whiteSpace=wrap;html=1;fillColor=#dae8fc;fontSize=12;strokeColor=#6c8ebf;" parent="1" vertex="1">
          <mxGeometry x="247" y="145" width="100" height="29.37" as="geometry" />
        </mxCell>
        <mxCell id="uxCuHHejZAC-gQjQRYmj-106" value="成功" style="text;html=1;align=center;verticalAlign=middle;resizable=0;points=[];autosize=1;fontSize=12;" parent="1" vertex="1">
          <mxGeometry x="501" y="757" width="34" height="18" as="geometry" />
        </mxCell>
        <mxCell id="XxC4l4LAaYLKOjhg_-a7-8" style="edgeStyle=orthogonalEdgeStyle;rounded=0;orthogonalLoop=1;jettySize=auto;html=1;fontSize=20;" edge="1" parent="1" source="uxCuHHejZAC-gQjQRYmj-113">
          <mxGeometry relative="1" as="geometry">
            <mxPoint x="57" y="243" as="targetPoint" />
          </mxGeometry>
        </mxCell>
        <mxCell id="uxCuHHejZAC-gQjQRYmj-113" value="导入" style="rhombus;whiteSpace=wrap;html=1;fillColor=#ffffff;fontSize=12;" parent="1" vertex="1">
          <mxGeometry x="257" y="210.37" width="80" height="65" as="geometry" />
        </mxCell>
        <mxCell id="uxCuHHejZAC-gQjQRYmj-118" value="doc/docx文件" style="rounded=1;whiteSpace=wrap;html=1;fillColor=#dae8fc;fontSize=12;strokeColor=#6c8ebf;" parent="1" vertex="1">
          <mxGeometry x="110" y="145" width="100" height="29.37" as="geometry" />
        </mxCell>
        <mxCell id="uxCuHHejZAC-gQjQRYmj-119" value="成功" style="text;html=1;align=center;verticalAlign=middle;resizable=0;points=[];autosize=1;fontSize=12;" parent="1" vertex="1">
          <mxGeometry x="194" y="219" width="40" height="20" as="geometry" />
        </mxCell>
        <mxCell id="uxCuHHejZAC-gQjQRYmj-122" value="网盘列表页" style="text;html=1;strokeColor=none;fillColor=none;align=center;verticalAlign=middle;whiteSpace=wrap;rounded=0;dashed=1;fontSize=17;fontStyle=1" parent="1" vertex="1">
          <mxGeometry x="30" y="90" width="100" height="20" as="geometry" />
        </mxCell>
        <mxCell id="XxC4l4LAaYLKOjhg_-a7-1" value="新建、导入或点击列表的doc文件流程" style="text;html=1;align=left;verticalAlign=middle;resizable=0;points=[];autosize=1;fontSize=20;fontStyle=1" vertex="1" parent="1">
          <mxGeometry x="24" y="25" width="346" height="28" as="geometry" />
        </mxCell>
        <mxCell id="XxC4l4LAaYLKOjhg_-a7-3" value="文档编辑页 - 点击文件名重命名流程" style="text;html=1;align=left;verticalAlign=middle;resizable=0;points=[];autosize=1;fontSize=20;fontStyle=1" vertex="1" parent="1">
          <mxGeometry x="30" y="1208" width="328" height="28" as="geometry" />
        </mxCell>
        <mxCell id="XxC4l4LAaYLKOjhg_-a7-10" style="edgeStyle=orthogonalEdgeStyle;rounded=0;orthogonalLoop=1;jettySize=auto;html=1;exitX=0.5;exitY=1;exitDx=0;exitDy=0;entryX=0.5;entryY=0;entryDx=0;entryDy=0;" edge="1" parent="1" source="XxC4l4LAaYLKOjhg_-a7-11" target="XxC4l4LAaYLKOjhg_-a7-12">
          <mxGeometry relative="1" as="geometry">
            <mxPoint x="652" y="242.5" as="targetPoint" />
            <Array as="points" />
          </mxGeometry>
        </mxCell>
        <mxCell id="XxC4l4LAaYLKOjhg_-a7-11" value="新建空白wp文档" style="rounded=1;whiteSpace=wrap;html=1;fillColor=#dae8fc;strokeColor=#6c8ebf;" vertex="1" parent="1">
          <mxGeometry x="532" y="145" width="100" height="29.37" as="geometry" />
        </mxCell>
        <mxCell id="XxC4l4LAaYLKOjhg_-a7-12" value="弹窗&lt;br&gt;用户输入文件名" style="rhombus;whiteSpace=wrap;html=1;fillColor=#ffe6cc;strokeColor=#d79b00;" vertex="1" parent="1">
          <mxGeometry x="527" y="210.37" width="110" height="63" as="geometry" />
        </mxCell>
        <mxCell id="XxC4l4LAaYLKOjhg_-a7-14" value="请求 data 接口 获取文档数据" style="text;strokeColor=none;fillColor=#ffffff;spacing=0;spacingTop=0;overflow=hidden;rounded=0;dashed=1;fontSize=12;verticalAlign=top;horizontal=1;whiteSpace=wrap;" vertex="1" parent="1">
          <mxGeometry x="533" y="843" width="87" height="53" as="geometry" />
        </mxCell>
        <mxCell id="XxC4l4LAaYLKOjhg_-a7-15" value="url：&#xa;path=xx.wp&#xa;action=edit&#xa;fsid=123&#xa;&#xa;&#xa;" style="text;strokeColor=none;fillColor=#ffffff;spacing=0;spacingTop=0;overflow=hidden;rounded=0;dashed=1;fontSize=12;verticalAlign=top;horizontal=1;whiteSpace=wrap;" vertex="1" parent="1">
          <mxGeometry x="412" y="207" width="72" height="60" as="geometry" />
        </mxCell>
        <mxCell id="XxC4l4LAaYLKOjhg_-a7-17" value="不存在" style="text;html=1;align=left;verticalAlign=middle;resizable=0;points=[];autosize=1;fontSize=12;horizontal=1;" vertex="1" parent="1">
          <mxGeometry x="437" y="626" width="46" height="18" as="geometry" />
        </mxCell>
        <mxCell id="XxC4l4LAaYLKOjhg_-a7-26" value="fail" style="text;html=1;align=center;verticalAlign=middle;resizable=0;points=[];autosize=1;fillColor=#ffffff;" vertex="1" parent="1">
          <mxGeometry x="743" y="445.5" width="25" height="18" as="geometry" />
        </mxCell>
        <mxCell id="uxCuHHejZAC-gQjQRYmj-53" value="url：&#xa;path=xx.docx&#xa;action=create&#xa;fsid=123&#xa;&#xa;&#xa;" style="text;strokeColor=none;fillColor=#ffffff;spacing=0;spacingTop=0;overflow=hidden;rounded=0;dashed=1;fontSize=12;verticalAlign=top;horizontal=1;whiteSpace=wrap;" parent="1" vertex="1">
          <mxGeometry x="32" y="215.5" width="80" height="60" as="geometry" />
        </mxCell>
        <mxCell id="XxC4l4LAaYLKOjhg_-a7-32" value="create 重试" style="text;html=1;align=center;verticalAlign=middle;resizable=0;points=[];autosize=1;fontSize=12;fillColor=#ffffff;" vertex="1" parent="1">
          <mxGeometry x="317" y="1117" width="80" height="20" as="geometry" />
        </mxCell>
        <mxCell id="XxC4l4LAaYLKOjhg_-a7-34" value="新建" style="text;html=1;align=left;verticalAlign=middle;resizable=0;points=[];autosize=1;fontSize=12;horizontal=1;fillColor=#ffffff;" vertex="1" parent="1">
          <mxGeometry x="530" y="623" width="34" height="18" as="geometry" />
        </mxCell>
        <mxCell id="XxC4l4LAaYLKOjhg_-a7-44" style="edgeStyle=orthogonalEdgeStyle;rounded=0;orthogonalLoop=1;jettySize=auto;html=1;entryX=0.5;entryY=0;entryDx=0;entryDy=0;fontSize=12;" edge="1" parent="1" source="XxC4l4LAaYLKOjhg_-a7-36" target="XxC4l4LAaYLKOjhg_-a7-43">
          <mxGeometry relative="1" as="geometry" />
        </mxCell>
        <mxCell id="XxC4l4LAaYLKOjhg_-a7-36" value="请求重命名接口" style="rounded=0;whiteSpace=wrap;html=1;strokeColor=#4D4D4D;fillColor=#ffffff;fontSize=12;align=center;" vertex="1" parent="1">
          <mxGeometry x="281" y="1609" width="120" height="60" as="geometry" />
        </mxCell>
        <mxCell id="XxC4l4LAaYLKOjhg_-a7-41" style="edgeStyle=orthogonalEdgeStyle;rounded=0;orthogonalLoop=1;jettySize=auto;html=1;entryX=0.5;entryY=0;entryDx=0;entryDy=0;fontSize=12;" edge="1" parent="1" source="XxC4l4LAaYLKOjhg_-a7-37" target="XxC4l4LAaYLKOjhg_-a7-36">
          <mxGeometry relative="1" as="geometry" />
        </mxCell>
        <mxCell id="XxC4l4LAaYLKOjhg_-a7-64" style="edgeStyle=orthogonalEdgeStyle;rounded=0;orthogonalLoop=1;jettySize=auto;html=1;fontSize=12;" edge="1" parent="1" source="XxC4l4LAaYLKOjhg_-a7-37">
          <mxGeometry relative="1" as="geometry">
            <mxPoint x="580.5" y="2006" as="targetPoint" />
          </mxGeometry>
        </mxCell>
        <mxCell id="XxC4l4LAaYLKOjhg_-a7-37" value="文件名是否产生了变化" style="rhombus;whiteSpace=wrap;html=1;strokeColor=#4D4D4D;fillColor=#ffffff;fontSize=12;align=center;" vertex="1" parent="1">
          <mxGeometry x="301" y="1494" width="80" height="80" as="geometry" />
        </mxCell>
        <mxCell id="XxC4l4LAaYLKOjhg_-a7-59" style="edgeStyle=orthogonalEdgeStyle;rounded=0;orthogonalLoop=1;jettySize=auto;html=1;entryX=0.5;entryY=0;entryDx=0;entryDy=0;fontSize=12;" edge="1" parent="1" source="XxC4l4LAaYLKOjhg_-a7-38" target="XxC4l4LAaYLKOjhg_-a7-58">
          <mxGeometry relative="1" as="geometry" />
        </mxCell>
        <mxCell id="XxC4l4LAaYLKOjhg_-a7-38" value="文件名" style="rounded=1;whiteSpace=wrap;html=1;strokeColor=#4D4D4D;fillColor=#ffffff;fontSize=12;align=center;" vertex="1" parent="1">
          <mxGeometry x="281" y="1281" width="120" height="60" as="geometry" />
        </mxCell>
        <mxCell id="XxC4l4LAaYLKOjhg_-a7-39" value="失去焦点" style="text;html=1;align=center;verticalAlign=middle;resizable=0;points=[];autosize=1;fontSize=12;" vertex="1" parent="1">
          <mxGeometry x="347.5" y="1466" width="58" height="18" as="geometry" />
        </mxCell>
        <mxCell id="XxC4l4LAaYLKOjhg_-a7-42" value="文件名变了" style="text;html=1;align=center;verticalAlign=middle;resizable=0;points=[];autosize=1;fontSize=12;" vertex="1" parent="1">
          <mxGeometry x="343" y="1578" width="70" height="18" as="geometry" />
        </mxCell>
        <mxCell id="XxC4l4LAaYLKOjhg_-a7-47" style="edgeStyle=orthogonalEdgeStyle;rounded=0;orthogonalLoop=1;jettySize=auto;html=1;exitX=0.5;exitY=1;exitDx=0;exitDy=0;entryX=0.5;entryY=0;entryDx=0;entryDy=0;fontSize=12;" edge="1" parent="1" source="XxC4l4LAaYLKOjhg_-a7-43" target="XxC4l4LAaYLKOjhg_-a7-46">
          <mxGeometry relative="1" as="geometry" />
        </mxCell>
        <mxCell id="XxC4l4LAaYLKOjhg_-a7-68" style="edgeStyle=orthogonalEdgeStyle;rounded=0;orthogonalLoop=1;jettySize=auto;html=1;entryX=1;entryY=0.5;entryDx=0;entryDy=0;fontSize=12;" edge="1" parent="1" source="XxC4l4LAaYLKOjhg_-a7-43" target="XxC4l4LAaYLKOjhg_-a7-66">
          <mxGeometry relative="1" as="geometry" />
        </mxCell>
        <mxCell id="XxC4l4LAaYLKOjhg_-a7-43" value="接口返回结果" style="rhombus;whiteSpace=wrap;html=1;strokeColor=#4D4D4D;fillColor=#ffffff;fontSize=12;align=center;" vertex="1" parent="1">
          <mxGeometry x="301" y="1702" width="80" height="80" as="geometry" />
        </mxCell>
        <mxCell id="XxC4l4LAaYLKOjhg_-a7-51" style="edgeStyle=orthogonalEdgeStyle;rounded=0;orthogonalLoop=1;jettySize=auto;html=1;entryX=0.5;entryY=0;entryDx=0;entryDy=0;fontSize=12;" edge="1" parent="1" source="XxC4l4LAaYLKOjhg_-a7-46" target="XxC4l4LAaYLKOjhg_-a7-50">
          <mxGeometry relative="1" as="geometry" />
        </mxCell>
        <mxCell id="XxC4l4LAaYLKOjhg_-a7-46" value="重命名成功" style="rounded=0;whiteSpace=wrap;html=1;strokeColor=#4D4D4D;fillColor=#ffffff;fontSize=12;align=center;" vertex="1" parent="1">
          <mxGeometry x="281" y="1843" width="120" height="60" as="geometry" />
        </mxCell>
        <mxCell id="XxC4l4LAaYLKOjhg_-a7-48" value="success" style="text;html=1;align=center;verticalAlign=middle;resizable=0;points=[];autosize=1;fontSize=12;" vertex="1" parent="1">
          <mxGeometry x="345.5" y="1799" width="53" height="18" as="geometry" />
        </mxCell>
        <mxCell id="XxC4l4LAaYLKOjhg_-a7-54" style="edgeStyle=orthogonalEdgeStyle;rounded=0;orthogonalLoop=1;jettySize=auto;html=1;exitX=1;exitY=0.5;exitDx=0;exitDy=0;entryX=0;entryY=0.5;entryDx=0;entryDy=0;fontSize=12;" edge="1" parent="1" source="XxC4l4LAaYLKOjhg_-a7-50" target="XxC4l4LAaYLKOjhg_-a7-56">
          <mxGeometry relative="1" as="geometry">
            <mxPoint x="631.5" y="1904" as="targetPoint" />
          </mxGeometry>
        </mxCell>
        <mxCell id="XxC4l4LAaYLKOjhg_-a7-72" style="edgeStyle=orthogonalEdgeStyle;rounded=0;orthogonalLoop=1;jettySize=auto;html=1;fontSize=12;" edge="1" parent="1" source="XxC4l4LAaYLKOjhg_-a7-50">
          <mxGeometry relative="1" as="geometry">
            <mxPoint x="212.73076923076928" y="2042" as="targetPoint" />
          </mxGeometry>
        </mxCell>
        <mxCell id="XxC4l4LAaYLKOjhg_-a7-50" value="接口返回结果" style="rhombus;whiteSpace=wrap;html=1;strokeColor=#4D4D4D;fillColor=#ffffff;fontSize=12;align=center;" vertex="1" parent="1">
          <mxGeometry x="301" y="2002" width="80" height="80" as="geometry" />
        </mxCell>
        <mxCell id="XxC4l4LAaYLKOjhg_-a7-52" value="请求更改版本号" style="text;html=1;align=center;verticalAlign=middle;resizable=0;points=[];autosize=1;fontSize=12;" vertex="1" parent="1">
          <mxGeometry x="345.5" y="1944" width="94" height="18" as="geometry" />
        </mxCell>
        <mxCell id="XxC4l4LAaYLKOjhg_-a7-55" value="success" style="text;html=1;align=center;verticalAlign=middle;resizable=0;points=[];autosize=1;fontSize=12;" vertex="1" parent="1">
          <mxGeometry x="420.5" y="2016" width="53" height="18" as="geometry" />
        </mxCell>
        <mxCell id="XxC4l4LAaYLKOjhg_-a7-56" value="end" style="rounded=1;whiteSpace=wrap;html=1;strokeColor=#666666;fillColor=#f5f5f5;fontSize=12;align=center;fontColor=#333333;" vertex="1" parent="1">
          <mxGeometry x="522.5" y="2012" width="120" height="60" as="geometry" />
        </mxCell>
        <mxCell id="XxC4l4LAaYLKOjhg_-a7-61" style="edgeStyle=orthogonalEdgeStyle;rounded=0;orthogonalLoop=1;jettySize=auto;html=1;fontSize=12;" edge="1" parent="1" source="XxC4l4LAaYLKOjhg_-a7-58" target="XxC4l4LAaYLKOjhg_-a7-37">
          <mxGeometry relative="1" as="geometry" />
        </mxCell>
        <mxCell id="XxC4l4LAaYLKOjhg_-a7-58" value="文件名区域变为可编辑态" style="rounded=0;whiteSpace=wrap;html=1;strokeColor=#4D4D4D;fillColor=#ffffff;fontSize=12;align=center;" vertex="1" parent="1">
          <mxGeometry x="281" y="1391" width="120" height="60" as="geometry" />
        </mxCell>
        <mxCell id="XxC4l4LAaYLKOjhg_-a7-60" value="点击获得焦点" style="text;html=1;align=center;verticalAlign=middle;resizable=0;points=[];autosize=1;fontSize=12;" vertex="1" parent="1">
          <mxGeometry x="338" y="1359" width="82" height="18" as="geometry" />
        </mxCell>
        <mxCell id="XxC4l4LAaYLKOjhg_-a7-65" value="没变化" style="text;html=1;align=center;verticalAlign=middle;resizable=0;points=[];autosize=1;fontSize=12;" vertex="1" parent="1">
          <mxGeometry x="449.5" y="1514" width="46" height="18" as="geometry" />
        </mxCell>
        <mxCell id="XxC4l4LAaYLKOjhg_-a7-67" style="edgeStyle=orthogonalEdgeStyle;rounded=0;orthogonalLoop=1;jettySize=auto;html=1;entryX=0;entryY=0.5;entryDx=0;entryDy=0;fontSize=12;exitX=0.5;exitY=0;exitDx=0;exitDy=0;" edge="1" parent="1" source="XxC4l4LAaYLKOjhg_-a7-66" target="XxC4l4LAaYLKOjhg_-a7-38">
          <mxGeometry relative="1" as="geometry">
            <Array as="points">
              <mxPoint x="167.5" y="1311" />
            </Array>
          </mxGeometry>
        </mxCell>
        <mxCell id="XxC4l4LAaYLKOjhg_-a7-66" value="toast 提示重命名失败" style="rounded=0;whiteSpace=wrap;html=1;strokeColor=#4D4D4D;fillColor=#ffffff;fontSize=12;align=center;" vertex="1" parent="1">
          <mxGeometry x="107.5" y="1712" width="120" height="60" as="geometry" />
        </mxCell>
        <mxCell id="XxC4l4LAaYLKOjhg_-a7-69" value="fail" style="text;html=1;align=center;verticalAlign=middle;resizable=0;points=[];autosize=1;fontSize=12;" vertex="1" parent="1">
          <mxGeometry x="260.5" y="1725" width="25" height="18" as="geometry" />
        </mxCell>
        <mxCell id="XxC4l4LAaYLKOjhg_-a7-70" value="&lt;h1&gt;&lt;span style=&quot;font-size: 12px ; font-weight: normal&quot;&gt;还原回原来的文件名&lt;/span&gt;&lt;br&gt;&lt;/h1&gt;" style="text;html=1;strokeColor=none;fillColor=none;spacing=5;spacingTop=-20;whiteSpace=wrap;overflow=hidden;rounded=0;fontSize=12;align=center;" vertex="1" parent="1">
          <mxGeometry x="94.5" y="1501" width="138" height="40" as="geometry" />
        </mxCell>
        <mxCell id="XxC4l4LAaYLKOjhg_-a7-71" value="涉及接口：1. 重命名接口; 2. 版本更新接口" style="text;html=1;align=left;verticalAlign=middle;resizable=0;points=[];autosize=1;fontSize=12;" vertex="1" parent="1">
          <mxGeometry x="48" y="2170" width="235" height="18" as="geometry" />
        </mxCell>
        <mxCell id="XxC4l4LAaYLKOjhg_-a7-73" value="fail" style="text;html=1;align=center;verticalAlign=middle;resizable=0;points=[];autosize=1;fontSize=12;" vertex="1" parent="1">
          <mxGeometry x="250.5" y="2018" width="25" height="18" as="geometry" />
        </mxCell>
        <mxCell id="XxC4l4LAaYLKOjhg_-a7-75" value="更新版本失败怎么办？？？" style="rounded=0;whiteSpace=wrap;html=1;strokeColor=#b85450;fillColor=#f8cecc;fontSize=12;align=center;" vertex="1" parent="1">
          <mxGeometry x="85.5" y="2012" width="120" height="60" as="geometry" />
        </mxCell>
        <mxCell id="XxC4l4LAaYLKOjhg_-a7-78" value="问题：1. 需求文档里有说文档的标题变了 文件名 会截取文档的前 n 个字同步更新，这里评审没有说具体逻辑&#xa;2. 重命名要不要更新版本？？" style="text;strokeColor=none;fillColor=none;spacing=0;spacingTop=0;overflow=hidden;rounded=0;fontSize=12;align=left;labelPosition=center;verticalLabelPosition=middle;verticalAlign=middle;labelBackgroundColor=none;fontColor=#990000;" vertex="1" parent="1">
          <mxGeometry x="48" y="2192" width="695" height="49" as="geometry" />
        </mxCell>
        <mxCell id="XxC4l4LAaYLKOjhg_-a7-79" value="文档编辑页 - 上传图片流程" style="text;html=1;align=left;verticalAlign=middle;resizable=0;points=[];autosize=1;fontSize=20;fontStyle=1" vertex="1" parent="1">
          <mxGeometry x="42" y="2388" width="248" height="28" as="geometry" />
        </mxCell>
        <mxCell id="XxC4l4LAaYLKOjhg_-a7-80" value="&lt;font color=&quot;#000000&quot;&gt;点击上传图片按钮&lt;/font&gt;" style="rounded=1;whiteSpace=wrap;html=1;labelBackgroundColor=none;strokeColor=#4D4D4D;fillColor=#ffffff;fontSize=12;fontColor=#990000;align=center;" vertex="1" parent="1">
          <mxGeometry x="276" y="2446" width="120" height="60" as="geometry" />
        </mxCell>
        <mxCell id="XxC4l4LAaYLKOjhg_-a7-82" value="文件选择" style="rhombus;whiteSpace=wrap;html=1;labelBackgroundColor=none;strokeColor=#4D4D4D;fillColor=#ffffff;fontSize=12;fontColor=#000000;align=center;" vertex="1" parent="1">
          <mxGeometry x="296" y="2547" width="80" height="80" as="geometry" />
        </mxCell>
        <mxCell id="XxC4l4LAaYLKOjhg_-a7-83" value="本地上传" style="rounded=0;whiteSpace=wrap;html=1;labelBackgroundColor=none;strokeColor=#4D4D4D;fillColor=#ffffff;fontSize=12;fontColor=#000000;align=center;" vertex="1" parent="1">
          <mxGeometry x="425" y="2554" width="120" height="60" as="geometry" />
        </mxCell>
        <mxCell id="XxC4l4LAaYLKOjhg_-a7-84" value="网盘内导入" style="rounded=0;whiteSpace=wrap;html=1;labelBackgroundColor=none;strokeColor=#4D4D4D;fillColor=#ffffff;fontSize=12;fontColor=#000000;align=center;" vertex="1" parent="1">
          <mxGeometry x="127" y="2560" width="120" height="60" as="geometry" />
        </mxCell>
        <mxCell id="XxC4l4LAaYLKOjhg_-a7-85" value="网盘列表弹层" style="rounded=0;whiteSpace=wrap;html=1;labelBackgroundColor=none;strokeColor=#4D4D4D;fillColor=#ffffff;fontSize=12;fontColor=#000000;align=center;" vertex="1" parent="1">
          <mxGeometry x="127" y="2679" width="120" height="60" as="geometry" />
        </mxCell>
        <mxCell id="XxC4l4LAaYLKOjhg_-a7-86" value="过滤只能选中图片" style="rounded=0;whiteSpace=wrap;html=1;labelBackgroundColor=none;strokeColor=#4D4D4D;fillColor=#ffffff;fontSize=12;fontColor=#000000;align=center;" vertex="1" parent="1">
          <mxGeometry x="127" y="2787" width="120" height="60" as="geometry" />
        </mxCell>
      </root>
    </mxGraphModel>
  </diagram>
</mxfile>
